<svg version="1.0" xmlns="http://www.w3.org/2000/svg"  width="600.000000pt" height="600.000000pt" viewBox="0 0 600.000000 600.000000"  preserveAspectRatio="xMidYMid meet"> <g transform="translate(0.000000,600.000000) scale(0.100000,-0.100000)" fill="#000000" stroke="none"> <path d="M3205 4191 c-99 -25 -175 -112 -175 -203 0 -24 7 -65 15 -92 36 -119 9 -185 -81 -193 -65 -6 -86 10 -89 68 -2 75 -32 109 -95 109 -68 0 -100 -35 -98 -108 1 -63 -11 -79 -70 -93 -48 -11 -83 0 -106 32 -13 18 -15 40 -10 104 5 71 3 84 -18 120 -71 121 -257 140 -352 35 -72 -80 -69 -179 10 -273 28 -34 31 -77 7 -105 -10 -11 -52 -30 -93 -42 -41 -12 -92 -31 -112 -41 -53 -27 -82 -24 -112 12 -14 17 -26 35 -26 41 0 24 -35 80 -62 99 -135 97 -339 -31 -297 -185 10 -37 28 -58 107 -126 34 -30 30 -79 -11 -118 -38 -37 -68 -40 -104 -12 -49 38 -122 17 -142 -41 -14 -40 2 -80 39 -101 17 -9 30 -25 30 -34 0 -22 -58 -76 -107 -99 -53 -26 -157 -31 -226 -11 -97 28 -162 16 -232 -46 -106 -94 -94 -261 26 -344 46 -31 53 -32 284 -23 97 4 149 -9 210 -55 245 -182 821 -301 1621 -335 176 -7 195 -10 249 -35 36 -16 85 -52 125 -90 73 -71 122 -99 212 -122 164 -42 344 41 365 169 9 55 -5 104 -40 144 -48 55 -103 75 -229 82 -84 5 -111 10 -125 24 -14 13 -15 21 -7 34 16 26 76 35 204 31 95 -3 123 -8 162 -27 65 -32 122 -89 157 -160 38 -74 77 -103 147 -109 41 -3 61 0 93 18 39 22 71 69 71 105 0 29 -30 74 -59 90 -38 19 -48 50 -25 76 41 45 126 12 245 -97 116 -106 175 -136 267 -138 139 -2 242 81 242 195 0 106 -87 173 -240 185 -95 8 -120 16 -120 43 0 34 27 44 143 49 138 6 198 -9 277 -69 84 -64 134 -83 212 -83 56 0 74 5 114 30 169 105 95 329 -109 326 -77 -1 -117 18 -117 56 0 22 7 32 35 45 59 28 72 95 29 146 -27 32 -77 48 -115 36 -12 -4 -41 -27 -65 -52 -35 -36 -48 -43 -66 -38 -29 9 -119 70 -171 116 -53 46 -47 74 27 128 54 40 86 94 86 144 -1 71 -79 157 -160 177 -89 21 -137 -4 -231 -121 -34 -42 -77 -44 -134 -7 -22 15 -60 34 -85 44 -53 20 -90 51 -90 75 0 9 16 36 36 60 55 66 67 95 62 156 -5 62 -26 95 -86 137 -74 52 -194 47 -263 -11 -41 -35 -55 -67 -64 -142 -11 -93 -56 -132 -116 -101 -15 9 -19 20 -17 57 1 39 -3 50 -26 70 -17 14 -40 23 -60 23 -42 0 -86 -34 -86 -65 0 -57 -92 -81 -132 -33 -26 29 -22 77 12 163 18 45 30 94 30 121 0 134 -152 239 -295 205z m120 -42 c22 -6 45 -19 53 -28 7 -9 10 -10 6 -2 -5 10 -3 12 5 7 7 -5 10 -14 7 -21 -2 -7 2 -16 10 -19 9 -3 12 -1 9 4 -3 6 -4 10 -1 10 3 0 17 -23 32 -51 14 -28 20 -48 13 -43 -8 5 -10 3 -3 -7 11 -18 6 -59 -9 -78 -8 -10 -8 -13 -1 -8 6 3 0 -14 -12 -40 -33 -63 -38 -105 -23 -155 11 -33 22 -47 49 -60 46 -21 91 -34 70 -19 -12 9 -9 11 15 11 25 0 75 19 52 20 -4 0 -3 6 3 13 6 6 20 27 31 45 15 26 25 32 48 30 31 -2 38 -14 47 -72 2 -16 16 -42 31 -56 22 -23 32 -26 55 -19 16 4 26 4 23 -1 -14 -22 26 -1 49 27 30 36 46 74 46 111 0 31 37 118 46 109 4 -3 14 3 24 15 13 17 31 23 79 26 60 4 121 -10 121 -29 0 -5 6 -9 13 -9 8 0 22 -17 33 -37 10 -21 22 -39 25 -41 9 -4 0 -77 -11 -80 -5 -2 -10 -11 -10 -20 0 -10 -9 -23 -20 -30 -11 -7 -20 -19 -20 -28 0 -8 -4 -12 -10 -9 -5 3 -10 -3 -10 -14 0 -10 -5 -21 -10 -23 -15 -5 4 -62 28 -86 18 -18 58 -44 72 -47 21 -5 59 -26 65 -35 3 -5 11 -8 16 -5 5 4 9 2 9 -3 0 -27 140 -38 148 -12 2 5 8 8 13 4 5 -3 8 -1 7 5 -2 5 15 27 37 47 22 20 31 31 20 23 -19 -13 -19 -13 -5 5 43 55 150 68 203 25 14 -10 27 -15 31 -11 4 3 4 -1 1 -10 -4 -9 -1 -19 6 -24 8 -4 10 -3 5 4 -4 7 -4 12 -1 12 10 0 35 -67 35 -95 0 -14 -5 -25 -11 -25 -5 0 -8 -4 -5 -8 5 -9 -28 -64 -38 -63 -3 1 -6 -2 -5 -6 1 -11 -31 -24 -43 -17 -7 4 -8 3 -4 -4 4 -6 -1 -20 -11 -30 -18 -19 -23 -31 -27 -68 -4 -26 33 -68 99 -114 28 -19 55 -41 62 -50 7 -8 13 -10 13 -5 0 6 4 4 9 -4 5 -8 29 -16 54 -18 40 -4 48 0 97 44 58 52 90 58 122 20 27 -31 22 -51 -24 -98 -24 -23 -36 -38 -28 -34 10 6 9 2 -3 -12 -17 -20 -17 -23 -3 -52 24 -45 52 -58 136 -64 41 -3 88 -12 105 -21 35 -18 64 -69 65 -114 0 -38 -36 -116 -50 -107 -6 4 -10 2 -10 -4 0 -20 -88 -44 -137 -37 -47 6 -119 37 -138 59 -5 7 -22 18 -37 26 -15 8 -25 17 -23 21 2 4 -1 7 -8 7 -7 0 -40 10 -73 21 -53 19 -77 21 -170 16 -60 -3 -117 -5 -126 -5 -9 0 -20 -9 -23 -20 -4 -11 -10 -17 -13 -15 -4 2 -12 -6 -18 -19 -10 -20 -8 -29 10 -54 23 -34 67 -51 131 -51 50 0 115 -17 136 -36 9 -8 19 -11 24 -7 4 5 5 3 1 -4 -3 -6 0 -15 7 -20 42 -24 49 -109 15 -159 -56 -81 -180 -103 -290 -52 -32 15 -58 32 -58 37 0 6 -4 10 -9 9 -5 -2 -34 22 -64 54 -69 72 -153 118 -216 118 -53 0 -73 -12 -95 -54 -13 -26 -13 -32 2 -54 9 -14 32 -40 50 -58 30 -29 32 -35 24 -66 -5 -18 -15 -32 -21 -30 -7 1 -10 -2 -6 -7 8 -14 -32 -33 -69 -33 -59 0 -106 27 -123 72 -9 22 -20 40 -25 40 -5 0 -7 4 -4 8 7 11 -101 125 -112 118 -5 -3 -15 4 -22 15 -8 10 -23 19 -33 19 -10 0 -16 3 -14 8 9 14 -216 23 -308 12 -37 -5 -85 -37 -78 -52 2 -4 -1 -9 -6 -13 -12 -7 -2 -36 18 -53 13 -11 13 -12 1 -6 -9 4 -12 3 -7 -2 5 -5 9 -8 10 -6 1 2 18 -3 37 -11 19 -8 64 -15 100 -16 80 -2 132 -13 168 -37 15 -10 31 -17 35 -16 5 1 6 -2 2 -8 -3 -5 -2 -10 4 -10 16 0 34 -80 27 -119 -5 -34 -68 -106 -80 -93 -3 3 -6 0 -6 -6 0 -18 -72 -35 -150 -36 -80 0 -177 26 -187 50 -3 7 -14 16 -25 20 -21 6 -63 44 -50 44 4 1 -5 8 -20 16 -16 8 -28 19 -28 25 0 6 -4 7 -10 4 -5 -3 -10 -2 -10 4 0 5 -22 20 -50 34 -27 13 -46 28 -42 32 4 4 -4 4 -17 0 -13 -4 -21 -3 -18 2 3 5 -2 9 -11 10 -9 1 -116 6 -237 12 -228 12 -562 38 -575 46 -3 2 -42 7 -86 10 -43 3 -92 10 -109 15 -16 5 -64 14 -105 20 -41 6 -93 16 -114 22 -22 5 -49 11 -60 13 -12 1 -28 5 -36 8 -8 3 -55 15 -103 27 -48 13 -90 27 -93 32 -3 4 -14 8 -24 8 -27 0 -210 82 -204 91 3 5 -7 11 -21 15 -13 3 -22 10 -19 15 3 5 -2 6 -10 3 -9 -3 -16 -2 -16 4 0 11 -90 52 -129 58 -14 2 -35 6 -46 9 -11 2 -58 0 -105 -6 -126 -15 -142 -14 -181 5 -43 20 -97 76 -91 94 2 7 -2 12 -9 12 -15 0 -6 114 11 135 7 8 9 15 5 15 -5 0 11 18 34 40 40 39 59 51 46 30 -3 -6 1 -7 9 -4 9 3 14 9 12 13 -6 10 95 7 117 -3 9 -5 24 -6 32 -3 8 4 17 2 20 -3 3 -5 40 -7 83 -4 42 2 85 4 95 5 9 0 15 4 12 9 -3 4 6 11 19 14 14 3 38 17 54 31 16 13 33 21 37 17 5 -4 5 -2 2 4 -4 6 2 19 13 29 11 10 20 28 20 41 0 26 -44 97 -54 87 -3 -4 -6 8 -6 26 0 49 35 60 99 32 56 -24 82 -19 124 23 14 14 27 23 29 20 3 -2 5 2 6 9 12 81 13 100 1 125 -7 16 -25 34 -41 41 -15 7 -28 19 -28 27 0 8 -5 13 -12 12 -17 -4 -39 66 -31 103 15 74 117 133 193 110 22 -6 40 -16 40 -21 0 -5 9 -12 20 -15 11 -3 20 -10 20 -14 0 -5 8 -26 17 -47 9 -22 16 -42 15 -46 -1 -5 4 -8 12 -8 8 0 16 -7 20 -15 3 -8 13 -15 21 -15 9 0 14 -3 12 -7 -6 -10 66 -9 81 1 6 3 18 3 29 0 13 -4 14 -3 5 4 -15 10 -7 14 118 56 121 41 153 112 87 193 -56 67 -70 171 -28 204 12 10 16 19 10 21 -6 2 11 16 39 31 35 19 64 27 98 27 52 -1 119 -27 119 -47 0 -6 4 -15 9 -20 5 -5 6 -3 2 5 -4 6 -3 12 2 12 22 0 42 -70 42 -147 0 -57 5 -85 18 -104 29 -44 49 -59 68 -52 12 5 15 3 9 -6 -5 -10 -2 -12 11 -8 11 3 35 9 54 12 19 4 49 18 66 30 25 20 31 31 32 72 2 26 5 55 8 64 6 23 46 39 67 27 9 -5 17 -5 17 -1 0 4 7 -5 15 -20 8 -16 14 -31 13 -35 -1 -4 1 -23 5 -44 7 -32 28 -54 50 -50 4 1 7 -2 7 -8 0 -5 23 -10 50 -10 112 0 165 79 138 202 -17 77 -16 177 2 188 8 6 11 10 6 10 -8 0 16 24 63 62 31 25 107 33 166 17z"/> <path d="M1720 3077 c-17 -10 -27 -23 -24 -28 3 -5 0 -9 -5 -9 -14 0 -15 -107 -1 -115 5 -3 7 -12 4 -19 -7 -18 50 -64 114 -93 63 -28 131 -30 216 -6 66 19 128 70 140 118 8 32 -15 75 -45 82 -10 3 -19 8 -19 12 0 4 -9 7 -19 7 -11 0 -18 -3 -15 -7 2 -4 -9 -10 -26 -14 -16 -4 -33 -11 -36 -17 -5 -7 -2 -8 7 -3 8 5 10 4 6 0 -4 -5 -15 -10 -25 -12 -91 -19 -129 -8 -145 41 -12 36 -37 66 -55 66 -7 0 -11 4 -8 8 9 15 -35 8 -64 -11z m74 -33 c9 -8 16 -27 16 -40 0 -38 39 -70 95 -78 44 -7 56 -4 118 28 76 39 107 36 107 -8 0 -94 -205 -155 -323 -96 -59 30 -88 68 -95 125 -3 34 0 47 17 64 25 25 44 27 65 5z"/> <path d="M2872 2905 c-28 -27 -32 -35 -26 -65 8 -39 34 -90 47 -90 4 0 6 -4 3 -8 -3 -4 11 -16 30 -27 19 -10 34 -22 34 -28 0 -5 7 -7 15 -3 8 3 15 2 15 -3 0 -25 187 -38 233 -16 15 8 36 12 45 9 14 -5 15 -4 2 5 -13 9 -13 11 0 11 19 0 94 50 86 57 -3 3 1 12 9 20 8 8 15 30 15 48 0 26 -7 39 -29 54 -32 23 -66 27 -76 10 -4 -6 -14 -8 -22 -5 -9 4 -11 2 -7 -6 5 -8 2 -9 -10 -5 -9 4 -15 3 -12 -2 11 -18 -65 -44 -111 -37 -38 5 -112 34 -90 36 8 0 -63 69 -73 71 -35 6 -50 1 -78 -26z m96 -37 c17 -37 60 -66 118 -79 63 -14 121 0 169 42 43 38 75 36 90 -5 9 -26 6 -32 -36 -70 -55 -50 -103 -66 -192 -66 -54 0 -76 6 -128 33 -68 35 -109 82 -109 126 0 56 64 70 88 19z"/> <path d="M2265 2880 c-4 -6 -10 -8 -14 -6 -9 6 -12 -11 -12 -59 0 -53 4 -74 13 -69 4 3 8 -1 8 -8 0 -7 16 -24 34 -38 19 -14 32 -29 28 -35 -3 -5 -2 -7 2 -3 4 3 29 -2 54 -13 66 -29 175 -27 239 3 58 26 113 89 113 127 -1 28 -23 65 -33 54 -4 -3 -7 -2 -7 4 0 6 -7 14 -16 17 -9 4 -13 2 -8 -5 4 -7 0 -9 -14 -5 -13 4 -22 1 -26 -9 -3 -8 -12 -15 -20 -15 -8 0 -16 -5 -18 -10 -2 -6 -22 -17 -44 -25 -35 -12 -48 -12 -87 0 -51 15 -91 49 -81 68 4 7 4 9 0 5 -5 -4 -17 2 -29 13 -22 20 -72 26 -82 9z m78 -63 c22 -47 80 -76 149 -77 58 0 92 12 135 50 28 25 38 28 53 20 51 -27 -13 -109 -107 -136 -126 -37 -273 23 -302 123 -20 69 41 86 72 20z"/> </g> </svg>